<svg id="Pluggable_Logo" data-name="Pluggable Logo" xmlns="http://www.w3.org/2000/svg" width="4568.381" height="888.588" viewBox="0 0 4568.381 888.588">
  <g id="Logo" transform="translate(0 0)">
    <g id="Group_2" data-name="Group 2" transform="translate(0 0)">
      <path id="Ellipse_1" data-name="Ellipse 1" d="M444.294,63.479A380.945,380.945,0,0,0,296.085,795.231c193.812,81.858,417.286-8.9,499.14-202.717S786.319,175.226,592.5,93.372A378.372,378.372,0,0,0,444.294,63.478m0-63.478C689.671,0,888.588,198.917,888.588,444.294S689.671,888.588,444.294,888.588,0,689.671,0,444.294,198.917,0,444.294,0Z" fill="#0e4bfb"/>
      <g id="Group_1" data-name="Group 1" transform="translate(293.549 174.552)">
        <path id="Line_1" data-name="Line 1" d="M37.172,140.3A39.672,39.672,0,0,1-2.5,100.632V37.172a39.672,39.672,0,1,1,79.343,0v63.46A39.672,39.672,0,0,1,37.172,140.3Z" transform="translate(2.5 2.5)" fill="#0e4bfb"/>
        <path id="Line_2" data-name="Line 2" d="M37.172,140.3A39.672,39.672,0,0,1-2.5,100.632V37.172a39.672,39.672,0,1,1,79.343,0v63.46A39.672,39.672,0,0,1,37.172,140.3Z" transform="translate(224.647 2.5)" fill="#0e4bfb"/>
      </g>
      <path id="Rectangle_1" data-name="Rectangle 1" d="M0,0H460.159V134.88c0,127.042-102.992,230.05-230.052,230.07h-.019C103.021,364.95.01,261.948,0,134.88Z" transform="translate(222.147 364.951)" fill="#0e4bfb"/>
      <path id="Line_3" data-name="Line 3" d="M37.172,219.647A39.672,39.672,0,0,1-2.5,179.975V37.172a39.672,39.672,0,1,1,79.343,0v142.8a39.672,39.672,0,0,1-39.672,39.672Z" transform="translate(407.122 637.211)" fill="#0e4bfb"/>
    </g>
  </g>
  <path id="Path_1202" data-name="Path 1202" d="M162.581-102.8h66.542q54.852,0,86.324-24.728t31.472-72.386q0-48.557-30.124-71.937t-85.875-23.38q-19.783,0-36.868,1.349a299.142,299.142,0,0,0-31.472,4.046Zm72.836,90.82H49.28V-330.3q0-16.186,9.442-25.178T83.45-369.865q28.775-8.992,68.34-13.488a655.578,655.578,0,0,1,73.735-4.5q118.7,0,177.594,50.356t58.9,136.68q0,57.549-26.077,99.812T359.508-35.359Q309.152-11.979,235.417-11.979ZM49.28-63.234h114.2v232q-7.194,2.7-22.031,4.946a206.975,206.975,0,0,1-31.023,2.248q-32.372,0-46.759-12.139T49.28,122.9Zm474.783-3.6,110.6,5.4v230.2q-7.194,2.7-20.682,4.946a181.058,181.058,0,0,1-29.674,2.248q-30.573,0-45.41-11.24T524.063,124.7Zm110.6,62.046-110.6-5.4V-413.926q6.295-1.8,20.232-4.5a153.55,153.55,0,0,1,29.224-2.7q32.372,0,46.759,11.24t14.387,40.015ZM719.192,7.8V-63.234h110.6V6q0,47.658,24.728,68.34t68.79,20.682q28.775,0,48.557-5.4t29.674-11.69V-63.234h110.6V86.934q0,20.682-6.744,34.62t-25.627,25.627q-26.077,15.287-66.092,25.628t-91.27,10.341q-62.045,0-107.905-17.984t-70.588-57.1Q719.192,68.95,719.192,7.8Zm392.955-27.876h-110.6V-253.867q7.194-1.8,21.131-4.046a183.405,183.405,0,0,1,29.224-2.248q31.472,0,45.86,10.79t14.387,40.465Zm-282.352,0h-110.6V-253.867q7.194-1.8,20.682-4.046a181.05,181.05,0,0,1,29.674-2.248q31.473,0,45.86,10.79t14.387,40.465Zm537.728,175.346q-53.053,0-98.014-20.232t-71.937-66.991Q1170.6,21.292,1170.6-55.141q0-70.138,27.426-117.347t77.332-71.038Q1325.26-267.355,1390-267.355q45.859,0,84.975,11.69t62.5,26.976A85.443,85.443,0,0,1,1562.2-204.86q9.442,13.938,9.442,33.72V109.414H1463.738V-161.248q-11.69-7.194-28.775-12.589t-42.263-5.4q-49.457,0-80.479,30.573T1281.2-55.141q0,69.239,30.124,97.115t74.185,27.876q34.17,0,55.3-11.69t35.519-25.178l3.6,89.921q-16.186,12.589-44.511,22.48T1367.523,155.274Zm98.014,17.984V85.136h106.107v91.719q0,61.146-27.875,99.363t-75.983,56.2Q1419.677,350.4,1360.329,350.4q-46.759,0-81.379-8.992t-50.805-18.883q-29.674-17.984-29.674-49.457,0-16.186,7.194-28.775t17.085-18.883q22.48,14.387,56.2,25.178a233.165,233.165,0,0,0,71.487,10.791q53.953,0,84.526-21.132T1465.537,173.258Zm360.583-17.984q-53.053,0-98.014-20.232t-71.937-66.991q-26.976-46.759-26.976-123.192,0-70.138,27.426-117.347t77.332-71.038q49.906-23.829,114.649-23.829,45.859,0,84.976,11.69t62.495,26.976A85.439,85.439,0,0,1,2020.8-204.86q9.442,13.938,9.442,33.72V109.414H1922.336V-161.248q-11.69-7.194-28.775-12.589t-42.263-5.4q-49.457,0-80.479,30.573T1739.8-55.141q0,69.239,30.124,97.115T1844.1,69.849q34.171,0,55.3-11.69t35.519-25.178l3.6,89.921q-16.186,12.589-44.511,22.48T1826.12,155.274Zm98.014,17.984V85.136h106.106v91.719q0,61.146-27.875,99.363t-75.983,56.2Q1878.274,350.4,1818.927,350.4q-46.759,0-81.379-8.992t-50.805-18.883q-29.674-17.984-29.674-49.457,0-16.186,7.194-28.775t17.085-18.883q22.48,14.387,56.2,25.178a233.165,233.165,0,0,0,71.487,10.791q53.952,0,84.526-21.132T1924.134,173.258Zm351.591-73.735q26.976,0,48.557-5.4t31.472-11.69V-20.072l-89.022,8.992q-36.868,2.7-56.2,15.736T2191.2,42.873q0,26.077,20.682,41.364T2275.726,99.523Zm-4.5-366.878q88.123,0,140.277,37.317t52.154,117.347V94.128q0,21.581-10.341,34.17a104.15,104.15,0,0,1-26.527,22.48q-25.177,14.387-63.844,23.829t-87.223,9.442q-89.921,0-141.176-34.62T2083.295,46.47q0-60.247,38.216-92.169t111.052-39.116L2354.856-97.4V-113.59q0-35.968-24.728-52.154t-69.689-16.186a260.773,260.773,0,0,0-68.34,8.992q-33.271,8.992-59.348,21.581-8.991-7.194-16.186-19.783a51.878,51.878,0,0,1-7.194-26.077q0-32.372,35.969-47.658,25.178-11.69,58.9-17.085A423.45,423.45,0,0,1,2271.229-267.355Zm482.876,0q57.55,0,103.859,24.728t73.285,74.635q26.977,49.906,26.976,124.541,0,75.534-28.325,125.89t-79.131,75.534q-50.805,25.178-118.246,25.178-51.255,0-89.471-12.139t-64.294-28.325q-18.883-13.488-27.426-27.426t-8.542-34.62V-209.806h110.6V73.446q11.69,8.093,31.922,14.837t46.31,6.744q51.255,0,82.277-34.17t31.023-104.308q0-71.038-30.573-103.409t-80.03-32.372q-31.472,0-55.751,11.69t-41.364,26.976l-7.194-89.921q20.682-12.589,51.7-24.728T2754.106-267.355Zm-100.712,82.727h-110.6v-229.3q7.194-1.8,20.682-4.5a151.585,151.585,0,0,1,29.674-2.7q31.472,0,45.86,11.24t14.387,40.015Zm369.575,117.8,110.6,5.4v230.2q-7.194,2.7-20.682,4.946a181.059,181.059,0,0,1-29.674,2.248q-30.573,0-45.411-11.24T3022.969,124.7Zm110.6,62.046-110.6-5.4V-413.926q6.294-1.8,20.232-4.5a153.552,153.552,0,0,1,29.224-2.7q32.372,0,46.759,11.24t14.387,40.015ZM3266.656,14.1l-4.5-77.332L3503.148-99.2a95.987,95.987,0,0,0-26.077-59.348q-23.381-25.178-68.341-25.178-45.859,0-76.433,31.922t-31.472,91.27l2.7,46.759q8.094,57.55,44.511,84.526T3440.2,97.724q37.767,0,70.138-11.24T3561.6,61.756a65.169,65.169,0,0,1,20.233,20.232,48.824,48.824,0,0,1,7.643,26.527q0,23.38-20.682,40.015t-55.751,25.628q-35.069,8.992-80.03,8.992-69.24,0-122.742-25.627a190.33,190.33,0,0,1-83.626-76.882q-30.123-51.255-30.124-127.688,0-54.852,17.085-96.215t46.31-68.79a194.357,194.357,0,0,1,67.89-41.364,236.82,236.82,0,0,1,80.928-13.938q59.348,0,103.859,23.829t70.138,66.092q25.627,42.263,25.627,97.115,0,25.178-13.038,37.317T3558.9-28.165Z" transform="translate(960.026 538.185)" fill="#0e4bfb"/>
</svg>
